<svg width="12" height="9" fill="none" xmlns="http://www.w3.org/2000/svg"><path d="M11.35 1.004c-.398.185-.901.36-1.352.417.459-.286 1.186-.882 1.352-1.421-.429.265-1.204.548-1.71.65C9.236.2 8.66 0 8.022 0 6.796 0 5.94 1.092 5.94 2.368v.948c-1.803 0-3.561-1.444-4.655-2.842a2.369 2.369 0 00-.3 1.164c0 .861.752 1.736 1.349 2.151-.364-.011-1.053-.303-1.353-.473v.027c0 1.121.75 1.882 1.764 2.094-.185.054-.411.247-1.28.247.282.917 1.7 1.401 2.672 1.421-.76.62-2.115.948-3.156.948-.18 0-.277.01-.45-.011.981.653 2.353.958 3.606.958 4.082 0 6.31-3.277 6.31-6.333 0-.1-.003-.437-.008-.535.437-.323.613-.662.91-1.128z" fill="#313131"/></svg>